Coordinates														
version=1														
nRows=68														
nColumns=15														
inDegrees=yes														
														
"Units are S.I. units (second, meters, Newtons, ...)"														
"If the header above contains a line with 'inDegrees', this indicates whether rotational values are in degrees (yes) or radians (no)."														
														
endheader														
time	/jointset/hip_l/hip_flexion_l/value	/jointset/hip_l/hip_adduction_l/value	/jointset/hip_l/hip_rotation_l/value	/jointset/hip_r/hip_flexion_r/value	/jointset/hip_r/hip_adduction_r/value	/jointset/hip_r/hip_rotation_r/value	/jointset/walker_knee_l/knee_angle_l/value	/jointset/walker_knee_r/knee_angle_r/value	/jointset/ankle_l/ankle_angle_l/value	/jointset/ankle_r/ankle_angle_r/value	/jointset/subtalar_l/subtalar_angle_l/value	/jointset/subtalar_r/subtalar_angle_r/value	/jointset/mtp_l/mtp_angle_l/value	/jointset/mtp_r/mtp_angle_r/value
0.01	-21.05497733	-10.02331155	-19.4275194	70.83340272	-21.9220795	-36.8992691	89.79567532	3.34510207	43.06489492	-37.03561756	0.8545865	31.65013212	2.58330447	-30.85817797
0.02	16.37951415	-29.20372454	-8.32148995	1.1823625	5.46020809	30.18310816	24.78515619	94.71856729	46.63074678	-20.31630958	-8.28016764	-9.45033551	-11.10225526	0.06827078
0.03	106.6353907	-28.58969473	-23.27577719	44.87771286	-5.03726752	21.59808677	65.25622978	92.50342147	21.35346523	-12.17567095	-18.75658879	-19.90898955	-22.69708524	-42.3990351
0.04	-21.87998111	-31.5536735	32.63245249	8.27848821	2.19102002	-8.08118051	15.85420369	129.8968633	-5.83685375	-22.84427081	16.25174146	33.85371234	-43.22554387	-10.41397911
0.05	67.81864174	-16.01989694	25.49471417	68.00145801	16.19388935	1.33383435	76.3541121	45.83699437	1.74368934	-15.6308316	23.45133641	12.45883666	-38.93850008	-25.84081377
0.06	12.63492323	-21.45553362	17.36037739	-7.10207166	-43.52259558	-13.16647246	82.92312261	80.64235249	-5.4730752	11.5745735	-32.38204047	-22.02635621	-33.09102328	-33.30706393
0.07	100.2853085	2.68281371	10.81598182	51.53824189	-5.83534727	19.35525744	32.38620117	55.33967999	47.35294072	-18.08701184	-21.0972605	-32.13989679	-16.1587013	-28.04029805
0.08	71.04501972	-19.07849484	-17.71323154	36.04054397	-8.91194752	-24.23813339	30.86970636	2.70049482	-0.44702557	-4.71375997	9.35909985	18.47311636	1.92667406	-23.66026079
0.09	14.52230348	2.58531339	-33.14863558	107.6800092	6.96125497	-2.3840976	42.11675657	107.6769692	-31.01577634	26.70757955	9.03331387	-31.82965414	-11.77096241	-36.50978471
0.1	10.91403983	-0.97959059	-27.23468572	23.64951842	-19.23722238	2.92584188	4.40971476	107.4456438	-49.09059381	-34.39805528	-31.00003508	-23.1471023	-12.74679747	-18.3484969
0.11	47.64452737	6.0304221	28.75219735	95.57954769	-28.68654054	-35.57779974	45.25429764	89.41316832	2.05248448	-17.10584119	-1.57281375	7.29920642	-42.65763858	-1.714616
0.12	99.02565225	-24.07348597	18.57163487	-28.69470653	-5.31928408	-27.95117835	69.84650403	7.31446422	-16.4742382	-18.34536567	5.96219458	-0.63749765	-18.20777079	1.0047362
0.13	31.20888491	10.0095827	27.2362977	26.60571932	19.68441101	-12.42861296	120.2015345	57.4831809	26.78704934	-9.25722646	-20.8899463	-31.79287299	-11.30002511	-18.41001427
0.14	113.1067161	18.95777516	-12.62587165	48.02906215	-19.02427161	18.11063711	89.06416191	130.6090731	-46.32891053	-16.38760561	-12.88209823	21.48456589	-25.94122337	-34.98491537
0.15	87.39772769	0.80258217	-25.76071665	44.50043932	13.13300127	5.20454302	72.81686054	120.6906867	-25.98759723	24.98159003	33.28091456	-6.8791189	1.91924434	-0.83532316
0.16	-9.70370547	4.58162245	19.88975511	50.28998854	-16.89210916	-22.51021109	67.8415116	57.56514061	42.01088345	48.38613402	-3.62803111	-7.36940996	-39.23655038	-36.3070624
0.17	7.84888949	18.15619919	-21.91615062	84.48468191	16.95619507	5.04599608	16.11508744	68.42891314	-12.50745866	47.36632523	-12.09033842	-11.80529179	-13.17317441	-40.12242485
0.18	57.32960312	-13.14258925	34.46778265	97.30544964	-41.26509596	-4.98776165	106.7476647	96.85167973	32.03612345	-17.4531615	23.03902875	-17.9377665	-15.50078437	-13.36987705
0.19	86.15995345	6.40043518	-28.94902819	108.7397913	-17.70397418	32.82901758	71.53476028	90.08411399	24.99156453	-30.61618684	33.34350652	-34.14737284	-30.93970196	-38.07789897
0.2	95.02900095	-8.14314131	-10.16802765	72.05924477	-45.7487291	-33.76314716	15.41168754	136.1850368	-6.25906934	-22.02900947	-1.79628726	19.04469625	-8.22298633	2.79550523
0.21	13.57917288	-11.43609719	27.01173244	-21.20046187	18.46203256	5.54811049	53.80974079	85.27219864	39.2909517	34.21802987	14.0175018	11.76154445	-4.51039443	-24.16599471
0.22	110.314188	-4.73114167	-7.65322717	-6.6994683	15.95684046	-17.71669634	76.65157017	65.9588791	-43.92379881	46.02808813	13.86969818	31.82264477	4.04454591	-13.71136106
0.23	28.78312599	5.53698776	-15.8624206	40.09346805	-16.449963	16.13147434	126.401645	53.57877342	2.25213825	17.34190961	34.88129397	-3.88055147	-31.96193244	-30.66212261
0.24	46.8400857	18.53888748	-8.21392683	-10.97990193	-16.79372195	-5.30354434	103.9261359	122.1270905	-2.16305871	28.23887755	-27.33917021	-17.42064899	-19.38375064	-16.64236936
0.25	61.33782319	8.70570955	-29.24807433	12.10564875	-39.52891283	16.6560248	10.14308847	126.0296531	-47.55970611	-10.14661885	-28.70521334	5.65254091	-40.18360911	-8.49529635
0.26	102.3330712	-33.79614935	-28.55682941	31.53413035	-10.14687715	-37.03200905	32.8073184	8.5622704	-8.88325677	8.6399723	17.22887554	-32.72955298	2.65061192	4.12793934
0.27	4.70707737	-39.12875235	-29.21671767	43.41606607	-3.408054	27.54450193	58.12503647	33.5063243	19.47793625	7.27215463	1.98864819	-12.73632782	-28.30385357	-31.55747196
0.28	100.7612731	-27.93072285	-8.28247566	70.37196882	4.83982914	-3.37576925	106.8773607	32.06922492	18.936658	-14.9794284	33.0162781	-1.46497185	-27.42674173	-11.42336198
0.29	92.88515167	10.83180452	-8.43522337	45.69704748	10.81267778	-29.06265759	129.4511092	136.6489113	47.23258089	-23.99932987	14.6099657	23.67500531	-2.42310042	-3.76297176
0.3	118.130895	-34.517658	26.07294089	68.32686616	8.43156152	-3.86309526	121.8767154	10.3680861	-4.82472281	40.52705054	22.28436813	10.70607624	-39.16536987	-31.43067545
0.31	81.03530054	17.76590901	-20.22071958	34.78618147	-44.99091711	-27.30243758	64.03520229	94.99210747	2.27389542	-22.35357511	-22.93555238	-9.46536499	-9.12831449	3.52360855
0.32	-25.61924677	16.16319345	-18.38462618	-25.42246003	3.94154855	-9.76325043	50.45363383	92.46702003	28.65734481	-27.32858507	-18.70527304	-10.06350098	-35.8082525	-27.66873083
0.33	32.1555765	-40.94592559	-26.36433926	-11.2585073	-11.63674036	18.91135728	38.35260868	6.70886896	43.7410574	-27.9549862	-10.54206254	-29.0165435	-2.57766435	-28.83430638
0.34	9.18850109	-13.82182038	-6.46235173	13.90794348	-17.69749503	-19.84393398	10.26134625	128.0020854	-25.34864807	32.04340004	-10.94301522	27.76660524	-0.71242448	4.57442725
0.35	-8.46447037	-0.22018053	13.01858276	102.735555	-24.06907214	-37.85110239	3.23366693	114.9671974	-43.38425528	-18.70176087	-31.59118898	-22.98280643	3.30245334	-1.4546758
0.36	16.31480645	10.72875232	10.75655246	25.79784699	-22.1455719	-33.13958064	70.26369965	20.29458333	26.43546913	17.69223501	-14.91254576	27.18285447	-19.4165189	-37.18635314
0.37	90.68314587	-35.53516472	-34.50862732	75.56854867	-1.26626813	-31.39710048	111.6233323	83.34993431	38.52676971	-41.96230492	-10.42909426	22.19286497	-11.77552777	-17.82527274
0.38	102.7463628	-15.01865132	-35.3551177	70.55815129	-41.18189129	-25.12235272	5.38808382	69.70423198	0.934202	46.49907282	-31.00829666	4.01980416	-7.32263181	-4.44187716
0.39	62.63544323	2.95776896	-1.80702108	-21.49325543	-42.3917882	22.13768827	111.5847831	25.30628559	18.46357123	37.96688404	-31.98615578	18.45324071	-26.4160112	-27.56378407
0.4	37.68125932	12.15091252	6.66051847	74.7411051	11.93383602	18.49326106	81.01665051	128.655737	-4.91540822	-7.4089923	18.98600371	18.03875232	-2.3048207	-19.67461828
0.41	97.37244576	17.34605216	5.39756409	87.66081089	19.32109418	-29.8688774	102.5306682	76.24455099	14.34470015	-42.91402409	-18.88383085	19.18209829	-33.78632269	-10.63455815
0.42	-6.0094417	-27.61298964	-26.17441331	59.27639373	8.41138479	-4.05353672	13.43050983	76.3284293	-24.92402596	21.15649478	-19.65240063	22.26637521	-25.74777261	-44.43045519
0.43	32.58943083	-48.75001788	-7.5929276	13.36365769	-18.16129151	-19.06952898	2.98055763	56.8855252	49.14819634	-32.13545535	-23.33278631	-4.86572296	-15.80851896	-0.2555529
0.44	5.70228158	-9.18320861	-35.49399719	-22.01249279	-15.38863314	-1.7502819	134.9610721	99.04828454	-34.56832373	-41.03039537	-6.24123583	-6.69031572	-16.69317189	-42.4779679
0.45	27.93398318	-5.32309841	21.28874314	54.7883239	-12.53468126	-23.14190847	103.9186335	46.53395969	36.86663457	20.01587166	-12.67429469	-7.93460848	-0.02356231	-13.38953096
0.46	-12.9791799	-22.94715537	32.00265512	6.89771422	2.31902824	-35.94230989	121.2064764	105.302184	33.51647216	6.11332219	20.53979933	-31.75807519	-22.31165026	-35.11306823
0.47	90.03590459	-43.16763962	-34.67125456	44.47253434	-47.51981694	-26.93513018	54.42333011	7.33948478	-22.62359611	38.6745158	32.87267812	14.79477295	-28.87502246	-23.63977513
0.48	46.55807007	-26.63713456	-6.59562274	63.99149397	2.79648605	-5.13965557	7.76079685	59.91371956	-34.0008338	45.68890636	-22.9891188	14.50225054	-21.19269016	-16.09210342
0.49	-12.07280385	1.64658442	4.51630681	62.03724019	2.68376419	-18.13923325	117.640394	39.07070236	44.72302336	-41.83865471	-11.98202797	5.65841321	-6.56870865	-18.63482346
0.5	91.59097579	-11.84231411	-23.33487425	13.94411656	-20.30872245	-1.61504974	40.30213845	50.30608626	42.50003406	32.45142263	30.82963992	20.70971086	-28.12275289	-11.95145664
0.51	46.74703579	3.44037541	1.69527923	22.04027155	-7.41864682	15.15935686	121.3492511	66.78847466	2.35304793	27.85984634	5.40121939	-8.422401	-9.65068314	-23.47651287
0.52	88.52574776	-2.41945064	15.9664837	90.92883667	-44.72766047	-5.18352015	90.73311145	59.18072416	26.56363241	12.6630007	16.38301056	-14.25470897	-4.12652631	-23.45864097
0.53	8.05756498	-14.98567892	-18.32439677	27.80747677	2.07524529	-10.58657861	34.14796581	112.8506795	9.55396237	30.5549794	-19.50189158	-8.4772611	-36.27149264	-12.11901681
0.54	94.70648095	18.93388195	-21.94477556	28.71502515	-30.39048264	-10.02009694	64.84912486	21.48797755	-32.82318889	48.15806284	-6.91546769	-19.70601623	-34.1001888	-17.45197329
0.55	111.7588822	-19.89949902	-19.53648448	52.16647576	-28.95164907	11.27660376	91.63260866	127.8964378	-20.3817258	9.20661524	0.41675065	20.63557457	-0.5985343	-34.18285257
0.56	117.9944401	-20.91557318	11.89221363	109.0767029	-47.05423026	26.55271461	56.57315988	122.7504141	-14.43012034	37.81431142	-34.43571543	25.6279992	-14.04131828	0.52011024
0.57	12.70389835	-39.69801934	24.24675386	15.68102251	-4.13072058	-15.64702402	116.9722944	50.12382563	37.96310947	-10.30121941	8.22810335	-14.45118533	-31.93422842	-34.08624937
0.58	70.15297733	12.04372483	-30.34852748	92.84741951	-15.48533189	-38.27039406	12.20876783	54.93943036	26.0191909	9.36402803	-29.86603894	20.14322115	-7.5220437	3.44415633
0.59	-1.30406702	-46.32156635	8.45602528	11.379475	-47.29417775	9.53792372	86.37606082	97.34948834	1.62930871	2.0278274	17.03370845	20.47449965	-26.03952597	-4.29941999
0.6	12.21446435	-0.80222136	23.4444761	50.71877756	-29.37342485	-2.99674574	71.44818369	62.42237246	38.3347271	34.13832726	-0.84691862	-29.96093582	-32.22854608	1.72641054
0.61	95.87988222	-28.21906582	1.57422198	-9.58037742	3.39384856	-19.59373407	77.92817817	3.8521372	-24.60074655	22.86065477	-24.17583189	27.79891662	-37.05046164	-19.16705964
0.62	39.06312282	-45.49840198	-18.82855442	30.78032039	5.05344701	-13.56765504	34.69917661	26.22991676	-10.01896227	20.74647958	-25.35698339	-20.31914946	-2.83388525	-36.61875392
0.63	5.73007586	-2.13613769	-39.05716371	23.72820681	-2.29558362	15.35198145	54.08368327	46.28644636	24.83746191	-9.06201065	-21.78054886	18.86292339	-39.1749355	-29.35185066
0.64	5.27084592	-19.98142354	-24.62079186	60.7648791	6.92553941	31.3762596	114.8056911	47.87418237	44.2855045	3.15872141	1.10291929	33.65675834	-44.33141744	-29.45470687
0.65	21.43436294	-30.36557971	28.09519418	-17.21660111	15.59576034	-32.4120779	19.36761668	42.69902144	3.64890353	-8.58093752	-28.98526907	-21.52847833	-19.80536788	-3.53459171
0.66	65.47847124	-49.67787131	-28.92270192	53.06244174	1.02053516	-35.31141781	131.5138216	74.90642995	-18.6714969	42.88003333	11.49709239	-23.93020769	3.51374293	-19.76260302
0.67	25.55579501	-15.43749066	-9.25993954	13.28972784	-32.82060138	-6.08886254	15.41812572	57.97954812	33.99188126	-11.75755245	-24.67655268	1.21790995	-35.02496582	-5.42259214
0.68	-5.2760386	-30.43661224	29.17965249	41.54651355	-15.89787623	-14.07098132	122.0451545	43.35521363	41.21510156	-2.06976423	16.594842	-31.25351351	-3.76596469	-20.82677389
